<svg width="1024" height="1024" viewBox="0 0 1024 1024" fill="none" xmlns="http://www.w3.org/2000/svg">
  <defs>
    <linearGradient id="bg" x1="188" y1="92" x2="846" y2="944" gradientUnits="userSpaceOnUse">
      <stop offset="0" stop-color="#F7F9F5"/>
      <stop offset="1" stop-color="#DCE5DC"/>
    </linearGradient>
    <radialGradient id="sealGlow" cx="0" cy="0" r="1" gradientUnits="userSpaceOnUse" gradientTransform="translate(516 520) rotate(90) scale(360)">
      <stop offset="0" stop-color="#1C8F5B"/>
      <stop offset="0.58" stop-color="#0E6F45"/>
      <stop offset="1" stop-color="#0B3B2E"/>
    </radialGradient>
    <linearGradient id="fold" x1="256" y1="328" x2="780" y2="702" gradientUnits="userSpaceOnUse">
      <stop offset="0" stop-color="#C8D3C8"/>
      <stop offset="1" stop-color="#87958A"/>
    </linearGradient>
    <filter id="softShadow" x="82" y="84" width="860" height="866" filterUnits="userSpaceOnUse" color-interpolation-filters="sRGB">
      <feDropShadow dx="0" dy="26" stdDeviation="34" flood-color="#0B221B" flood-opacity="0.22"/>
    </filter>
    <filter id="sealShadow" x="257" y="276" width="510" height="516" filterUnits="userSpaceOnUse" color-interpolation-filters="sRGB">
      <feDropShadow dx="0" dy="18" stdDeviation="20" flood-color="#06251B" flood-opacity="0.3"/>
    </filter>
  </defs>

  <rect width="1024" height="1024" rx="225.28" fill="url(#bg)"/>
  <rect x="35" y="35" width="954" height="954" rx="210" stroke="#FFFFFF" stroke-opacity="0.58" stroke-width="22"/>
  <rect x="70" y="70" width="884" height="884" rx="194" stroke="#AFC0AF" stroke-opacity="0.34" stroke-width="10"/>

  <g filter="url(#softShadow)">
    <path d="M256 334C256 304.176 280.176 280 310 280H714C743.824 280 768 304.176 768 334V666C768 695.824 743.824 720 714 720H310C280.176 720 256 695.824 256 666V334Z" fill="#F5F8F3"/>
    <path d="M276 334C276 315.222 291.222 300 310 300H714C732.778 300 748 315.222 748 334V666C748 684.778 732.778 700 714 700H310C291.222 700 276 684.778 276 666V334Z" stroke="#AEBBAE" stroke-width="20"/>
    <path d="M288 334L511.5 521L736 334" stroke="url(#fold)" stroke-width="34" stroke-linecap="round" stroke-linejoin="round"/>
    <path d="M296 676L463 518" stroke="#B8C4B7" stroke-width="24" stroke-linecap="round"/>
    <path d="M728 676L562 518" stroke="#B8C4B7" stroke-width="24" stroke-linecap="round"/>
  </g>

  <g filter="url(#sealShadow)">
    <rect x="337" y="326" width="350" height="350" rx="86" fill="url(#sealGlow)"/>
    <rect x="363" y="352" width="298" height="298" rx="68" stroke="#86C7A3" stroke-opacity="0.48" stroke-width="12"/>
    <path d="M443 417H582C598.016 417 611 429.984 611 446V578C611 594.016 598.016 607 582 607H443C426.984 607 414 594.016 414 578V446C414 429.984 426.984 417 443 417Z" stroke="#F2F8F2" stroke-width="26" stroke-linejoin="round"/>
    <path d="M512 418V606" stroke="#F2F8F2" stroke-width="26" stroke-linecap="round"/>
    <path d="M424 506H600" stroke="#F2F8F2" stroke-width="26" stroke-linecap="round"/>
    <path d="M462 456V486" stroke="#F2F8F2" stroke-width="26" stroke-linecap="round"/>
    <path d="M562 537V568" stroke="#F2F8F2" stroke-width="26" stroke-linecap="round"/>
  </g>
</svg>
